<?xml version="1.0" standalone="no"?>
<!DOCTYPE svg PUBLIC "-//W3C//DTD SVG 20010904//EN"
 "http://www.w3.org/TR/2001/REC-SVG-20010904/DTD/svg10.dtd">
<svg version="1.0" xmlns="http://www.w3.org/2000/svg"
 width="1068.000000pt" height="332.000000pt" viewBox="0 0 1068.000000 332.000000"
 preserveAspectRatio="xMidYMid meet">

<g transform="translate(0.000000,332.000000) scale(0.100000,-0.100000)"
fill="#000000" stroke="none">
<path d="M4732 2473 c-102 -152 -242 -386 -452 -753 -225 -394 -329 -567 -372
-621 -33 -44 -35 -63 -7 -83 18 -12 27 -12 58 -2 109 39 414 51 556 22 44 -9
89 -16 100 -15 36 2 -68 29 -170 45 -107 17 -311 14 -414 -6 -39 -7 -58 -7
-67 1 -21 17 -18 24 31 79 87 97 174 238 410 655 87 154 205 356 262 448 124
201 155 262 151 290 -6 41 -28 26 -86 -60z"/>
<path d="M7866 2478 c-8 -13 -17 -38 -21 -56 -4 -18 -15 -37 -25 -42 -11 -6
-104 -19 -207 -30 -309 -33 -611 -80 -642 -99 -25 -16 -1 -48 57 -79 196 -105
319 -267 382 -502 25 -91 18 -100 -73 -101 -116 -2 -200 -13 -205 -26 -3 -10
31 -13 146 -13 160 0 162 -1 162 -52 0 -11 -39 -135 -86 -275 -60 -176 -88
-276 -92 -320 -5 -64 -5 -65 19 -61 17 2 32 18 51 53 63 114 101 249 124 435
26 216 39 228 286 239 90 4 136 9 103 10 -143 6 -295 17 -301 23 -11 11 293
728 321 757 10 10 61 14 206 18 215 6 363 -10 446 -47 52 -23 70 -18 35 10
-55 45 -374 79 -569 60 -54 -5 -99 -7 -101 -6 -1 2 6 26 16 53 10 27 17 54 14
61 -6 19 -30 14 -46 -10z m-80 -190 c-13 -29 -39 -87 -58 -128 -19 -41 -86
-194 -149 -340 l-114 -264 -12 49 c-76 296 -192 465 -408 591 l-49 28 87 18
c178 36 586 92 699 97 l28 1 -24 -52z m-391 -1165 c-9 -61 -30 -124 -56 -168
-39 -65 -37 -35 4 90 43 129 65 161 52 78z"/>
<path d="M8842 2338 c-27 -35 -68 -92 -91 -128 -50 -76 -195 -363 -282 -552
-33 -73 -65 -136 -72 -140 -7 -3 -41 -30 -77 -59 -123 -99 -246 -138 -292 -92
l-22 22 27 63 c15 34 55 108 88 165 56 94 67 133 40 133 -34 0 -150 -186 -177
-285 -15 -56 -15 -65 -1 -92 47 -90 178 -55 398 105 15 12 13 1 -12 -64 -88
-228 -149 -567 -119 -658 13 -40 43 -66 77 -66 33 0 28 15 -13 39 l-37 22 6
107 c11 227 103 533 256 857 77 162 162 308 288 498 100 150 116 187 79 187
-8 0 -37 -28 -64 -62z"/>
<path d="M2018 2151 c-32 -29 -33 -30 -13 -45 19 -14 20 -15 2 -43 -34 -52
-165 -327 -207 -435 -53 -136 -86 -188 -147 -228 -114 -77 -166 -155 -167
-250 0 -71 22 -113 80 -150 118 -74 278 -53 508 68 169 89 315 216 442 385
192 255 239 488 120 602 -131 127 -379 62 -614 -159 -29 -27 -55 -46 -58 -43
-4 3 28 71 70 151 69 131 75 146 60 160 -22 23 -39 20 -76 -13z m535 -65 c76
-27 116 -92 117 -186 1 -293 -404 -735 -792 -864 -147 -49 -305 -29 -343 45
-21 40 -19 105 5 155 23 47 125 148 140 139 5 -3 9 -21 7 -38 -3 -49 27 -42
56 13 56 106 230 179 430 180 26 0 47 5 47 10 0 6 -9 10 -19 10 -36 0 -175
-21 -279 -41 -57 -11 -106 -18 -109 -15 -7 7 77 162 136 251 66 101 202 233
286 281 117 65 238 88 318 60z"/>
<path d="M9189 1877 c-9 -12 -19 -38 -23 -57 -3 -19 -34 -94 -69 -166 -58
-124 -66 -135 -127 -184 -85 -68 -133 -95 -202 -115 -49 -14 -62 -14 -85 -3
-16 7 -29 23 -31 35 -4 28 51 146 117 252 49 77 51 85 36 100 -15 15 -18 13
-50 -24 -75 -89 -145 -238 -145 -309 0 -48 39 -81 93 -80 59 2 146 38 230 94
40 27 73 47 75 46 1 -2 -34 -84 -79 -182 -230 -507 -429 -966 -429 -992 0 -5
8 -13 17 -16 18 -7 43 16 43 39 0 54 240 571 384 829 148 265 232 378 325 438
71 44 101 36 101 -29 0 -54 -27 -86 -106 -128 -95 -50 -194 -137 -194 -171 0
-17 8 -28 26 -36 51 -23 155 52 240 172 57 83 79 97 204 135 111 34 109 33 74
34 -17 1 -64 -10 -104 -24 -101 -34 -106 -33 -102 13 3 27 -2 45 -19 66 -20
25 -27 28 -66 23 -56 -6 -108 -47 -203 -158 -69 -81 -100 -109 -87 -76 2 6 50
116 107 244 56 128 99 237 95 243 -10 16 -29 11 -46 -13z m105 -498 c-43 -84
-166 -176 -199 -149 -32 26 24 85 148 156 59 33 71 32 51 -7z"/>
<path d="M4621 1856 c-13 -15 -6 -42 12 -49 18 -7 57 11 57 26 0 33 -47 49
-69 23z"/>
<path d="M5483 1854 c-9 -24 11 -49 38 -46 29 3 40 21 28 44 -12 23 -57 24
-66 2z"/>
<path d="M8201 1856 c-13 -15 -6 -42 12 -49 18 -7 57 11 57 26 0 33 -47 49
-69 23z"/>
<path d="M8837 1864 c-12 -12 -8 -41 7 -53 22 -18 58 4 54 32 -3 22 -45 36
-61 21z"/>
<path d="M4894 1746 c-3 -8 -21 -61 -39 -118 l-33 -103 -77 -61 c-130 -105
-250 -144 -297 -97 l-22 22 27 63 c15 34 55 108 88 165 56 94 67 133 40 133
-34 0 -150 -186 -177 -285 -15 -56 -15 -65 -1 -92 23 -44 65 -59 125 -43 81
22 155 62 272 148 17 12 18 10 13 -26 -4 -32 -1 -44 16 -61 29 -29 40 -22 180
111 l115 108 27 -26 28 -27 -18 49 c-11 27 -25 50 -32 51 -8 2 -30 -21 -49
-49 -77 -115 -194 -218 -219 -193 -7 7 4 62 30 159 22 81 39 155 37 164 -4 21
-27 27 -34 8z"/>
<path d="M5402 1705 c-22 -25 -52 -69 -68 -99 -29 -57 -53 -70 -105 -60 -22 4
-22 3 -4 -5 11 -5 30 -10 43 -10 26 -1 26 2 7 -51 -8 -23 -15 -55 -15 -70 0
-35 32 -76 66 -84 53 -14 194 42 292 116 l53 40 -6 -59 c-6 -54 -5 -60 19 -82
24 -22 29 -23 65 -13 21 7 67 34 102 60 34 26 70 53 80 60 16 12 19 10 29 -28
15 -54 50 -90 89 -90 44 0 133 36 195 78 68 46 140 112 132 120 -4 3 -25 -13
-49 -35 -63 -61 -161 -120 -222 -134 -47 -10 -57 -10 -79 4 -38 25 -39 49 -7
144 20 62 26 92 19 101 -17 20 -24 14 -52 -42 -33 -67 -124 -154 -201 -192
-51 -24 -58 -26 -72 -11 -23 23 -4 87 62 218 52 103 56 119 29 119 -13 0 -104
-135 -104 -155 0 -16 -146 -132 -200 -159 -103 -52 -183 -53 -195 -3 -7 27 45
141 122 265 41 66 50 102 24 102 -5 0 -27 -20 -49 -45z"/>
<path d="M2763 1623 c-44 -84 -93 -212 -93 -244 0 -39 37 -18 125 71 102 103
184 170 208 170 10 0 36 -18 59 -41 24 -23 57 -47 75 -55 35 -15 99 -19 107
-6 2 4 -13 6 -35 4 -43 -5 -120 33 -139 68 -6 11 -22 27 -36 36 -33 22 -53 13
-161 -79 -141 -119 -144 -118 -80 29 26 59 44 110 41 115 -13 22 -33 3 -71
-68z"/>
<path d="M3309 1374 c-26 -31 25 -70 56 -44 20 16 19 46 -1 54 -25 10 -41 7
-55 -10z"/>
</g>
</svg>
